<svg width="337" height="91" viewBox="0 0 337 91" fill="none" xmlns="http://www.w3.org/2000/svg">
<path fill-rule="evenodd" clip-rule="evenodd" d="M5.22608 31.3825H9.78138V30.3277C9.78138 28.917 10.0648 27.5721 10.5725 26.346C11.1064 25.0737 11.8777 23.92 12.8468 22.9575C13.8093 21.995 14.963 21.2171 16.2353 20.6832C17.4614 20.169 18.8063 19.8855 20.217 19.8855H38.3328V19.7932V15.0006C38.0361 14.8951 37.7592 14.7567 37.489 14.605C37.1132 14.3809 36.7638 14.1106 36.4605 13.8074C35.9859 13.3327 35.6035 12.7658 35.3399 12.1329C35.0893 11.5264 34.9509 10.854 34.9509 10.1618C34.9509 9.46301 35.0893 8.79718 35.3399 8.19069C35.6035 7.55783 35.9859 6.98429 36.4605 6.50964C36.9352 6.035 37.5021 5.65264 38.135 5.38895C38.7415 5.13185 39.4139 5 40.1061 5C40.7983 5 41.4707 5.13844 42.0772 5.38895C42.7101 5.65264 43.2836 6.035 43.7583 6.50964C44.2329 6.98429 44.6153 7.55123 44.879 8.19069C45.1295 8.79718 45.2679 9.4696 45.2679 10.1618C45.2679 10.8606 45.1295 11.5264 44.879 12.1329C44.6153 12.7658 44.2329 13.3393 43.7583 13.8074L43.7319 13.8337C43.4286 14.1304 43.0924 14.3941 42.7233 14.6116C42.453 14.7698 42.1695 14.9083 41.8794 15.0072V19.7998V19.8921H59.9952C61.4059 19.8921 62.7508 20.1756 63.9769 20.6898C65.2559 21.2237 66.4029 21.995 67.3654 22.9641C68.3279 23.9266 69.1058 25.0802 69.6398 26.3526C70.154 27.5853 70.4308 28.9236 70.4308 30.3343V31.3891H74.8213C75.4278 31.3891 76.0211 31.5078 76.5551 31.7319C77.1155 31.9626 77.6099 32.2989 78.0252 32.7208L78.0516 32.7471C78.4603 33.1624 78.7899 33.6503 79.0141 34.1974C79.2382 34.738 79.3569 35.3181 79.3569 35.9312V48.0479C79.3569 48.6544 79.2382 49.2477 79.0141 49.7817C78.7833 50.3355 78.4471 50.8365 78.0252 51.2518C77.2078 52.0693 76.0673 52.5835 74.8147 52.5835H70.4177C70.3979 53.9349 70.1144 55.2336 69.62 56.4202C69.086 57.6991 68.3147 58.8462 67.3456 59.8087C66.3831 60.7711 65.2295 61.549 63.9572 62.083C62.7244 62.5972 61.3862 62.8741 59.9754 62.8741H53.0007V80.3701H63.9967C64.0561 80.2779 64.1154 80.179 64.1813 80.0867C64.3132 79.8955 64.4582 79.7241 64.6164 79.5593C64.9592 79.2165 65.3745 78.933 65.8426 78.7418C66.2909 78.5573 66.7787 78.4584 67.2863 78.4584C67.7873 78.4584 68.2883 78.5573 68.73 78.7418C69.1981 78.933 69.6068 79.2165 69.9562 79.5593C70.299 79.9021 70.5825 80.3174 70.7736 80.7855C70.9582 81.2337 71.0571 81.7216 71.0571 82.2292C71.0571 82.7368 70.9516 83.218 70.7736 83.6729C70.5825 84.141 70.299 84.5563 69.9562 84.8991C69.6134 85.2419 69.1981 85.5254 68.73 85.7165C68.2817 85.9011 67.7939 86 67.2863 86C66.7919 86 66.3172 85.9077 65.8689 85.7231L65.8426 85.7165C65.3745 85.5254 64.9658 85.2419 64.6164 84.8991C64.4055 84.6881 64.2143 84.4376 64.0561 84.1805C63.9704 84.0355 63.8847 83.8773 63.8253 83.7191H51.3197C50.8516 83.7191 50.4363 83.5279 50.1265 83.2246C49.81 82.9148 49.6254 82.4929 49.6254 82.0248V62.8741H41.4444V78.8473C41.5696 78.9132 41.6949 78.9792 41.8135 79.0583C42.0377 79.1967 42.2486 79.3747 42.4332 79.5527C42.7826 79.9021 43.0595 80.3108 43.2507 80.7789C43.4352 81.2271 43.5341 81.715 43.5341 82.2226C43.5341 82.717 43.4418 83.1917 43.2572 83.6399L43.2507 83.6663C43.0595 84.1344 42.776 84.5431 42.4332 84.8925C42.0904 85.2353 41.6751 85.5188 41.207 85.7099C40.7588 85.8945 40.2709 85.9934 39.7633 85.9934C39.2557 85.9934 38.7679 85.8879 38.3196 85.7099C37.8515 85.5188 37.4362 85.2353 37.0934 84.8925C36.7506 84.5497 36.4671 84.1344 36.276 83.6663C36.098 83.218 35.9925 82.7302 35.9925 82.2226C35.9925 81.7282 36.0848 81.2535 36.2694 80.8052L36.276 80.7789C36.4671 80.3108 36.7506 79.9021 37.0934 79.5527C37.2714 79.3681 37.4758 79.2099 37.6933 79.0715L37.7197 79.0517C37.8383 78.9858 37.9636 78.9198 38.0889 78.8539V62.8741H27.172V71.688C27.172 72.1561 26.9808 72.5714 26.6775 72.8747C26.3677 73.1845 25.9524 73.3691 25.4843 73.3691H17.7449C17.6856 73.4878 17.6197 73.5932 17.5471 73.7119C17.4153 73.9097 17.2637 74.1008 17.0857 74.2722L17.0527 74.2986C16.7099 74.6414 16.2946 74.9249 15.8265 75.1161C15.3783 75.3006 14.8904 75.3995 14.3828 75.3995C13.8884 75.3995 13.4138 75.3006 12.9655 75.1227L12.9391 75.1161C12.4711 74.9249 12.0623 74.6414 11.7129 74.2986C11.3701 73.9558 11.0867 73.5405 10.8955 73.0724C10.7109 72.6242 10.612 72.1363 10.612 71.6287C10.612 71.1277 10.7175 70.6333 10.8955 70.1784C11.0867 69.7103 11.3701 69.295 11.7129 68.9522C12.0689 68.616 12.4974 68.3325 12.9655 68.1414C13.4138 67.9568 13.9016 67.8579 14.4092 67.8579C14.9234 67.8579 15.4112 67.9634 15.8529 68.1414C16.3012 68.3325 16.7099 68.6028 17.0461 68.9456L17.0725 68.9654C17.2637 69.1566 17.4417 69.3741 17.5867 69.6049C17.6592 69.7301 17.7383 69.862 17.8042 70.007H23.8099V62.8741H20.2236C18.8129 62.8741 17.468 62.5906 16.2419 62.083C14.963 61.549 13.8159 60.7777 12.8534 59.8087C11.8843 58.8462 11.1064 57.6925 10.5725 56.4202C10.078 55.2336 9.80116 53.9349 9.78138 52.5835H5.22608C4.61958 52.5835 4.02627 52.4648 3.49229 52.2407C2.93195 52.0099 2.43752 51.6737 2.0222 51.2518L1.99583 51.2254C1.58711 50.8101 1.25749 50.3223 1.03335 49.7751C0.802622 49.2411 0.68396 48.6478 0.68396 48.0413V35.9246C0.68396 35.3181 0.802622 34.7248 1.03335 34.1909C1.26409 33.6371 1.60029 33.1361 2.0222 32.7208C2.43752 32.3054 2.93854 31.9626 3.49229 31.7319C4.02627 31.5078 4.61299 31.3825 5.22608 31.3825ZM30.7846 50.876C30.6923 50.8035 30.6197 50.731 30.5472 50.6387C30.3363 50.3816 30.2242 50.085 30.2176 49.7883C30.211 49.4851 30.3099 49.1884 30.5077 48.9247C30.5802 48.8324 30.6527 48.7533 30.7516 48.6742C31.0878 48.3973 31.5295 48.2523 31.9646 48.2457C32.3997 48.2391 32.8348 48.3644 33.1842 48.6281C34.3774 49.5444 35.5508 50.2102 36.7177 50.6519C37.8713 51.087 39.0118 51.2914 40.1391 51.2782C41.273 51.265 42.42 51.0277 43.5935 50.586C44.7801 50.1377 45.9667 49.4653 47.1797 48.6017C47.5357 48.3446 47.9774 48.2325 48.4124 48.2523C48.8475 48.2721 49.2826 48.4237 49.6123 48.7138C49.698 48.7929 49.7705 48.872 49.843 48.9709C50.0342 49.2411 50.1265 49.5444 50.1067 49.8476C50.0869 50.1509 49.9682 50.441 49.7507 50.6915C49.6716 50.7772 49.5859 50.8563 49.4804 50.9288C47.9642 52.0231 46.4413 52.8537 44.8921 53.4273C43.3429 53.9942 41.774 54.2975 40.1852 54.3172C38.5899 54.337 37.0143 54.0667 35.4453 53.4998C33.8895 52.9394 32.3403 52.0693 30.8175 50.9024L30.7846 50.876ZM26.7962 31.2902C27.1785 31.2902 27.5675 31.3298 27.9301 31.4023C28.2992 31.4814 28.6684 31.5869 29.0178 31.7319C29.3738 31.8769 29.7166 32.0615 30.0264 32.2725C30.3363 32.4768 30.6197 32.7076 30.8768 32.9647L30.9164 32.9976C31.1867 33.2679 31.4306 33.558 31.6416 33.881L31.6547 33.9008C31.8591 34.2106 32.0371 34.5402 32.1821 34.8962C32.3272 35.2456 32.4392 35.6148 32.5117 35.984C32.5843 36.3531 32.6304 36.7355 32.6304 37.1178C32.6304 37.5002 32.5908 37.8892 32.5117 38.2517C32.4392 38.6209 32.3272 38.9835 32.1821 39.3461C32.0371 39.702 31.8525 40.0448 31.6416 40.3547C31.0021 41.3172 30.0858 42.0621 29.0178 42.4972C28.6684 42.6422 28.2992 42.7543 27.9235 42.8334C27.5543 42.9059 27.172 42.9389 26.7896 42.9389C26.4072 42.9389 26.0183 42.8993 25.6557 42.8334C25.2865 42.7543 24.9174 42.6488 24.5614 42.4972C24.2054 42.3522 23.8626 42.1676 23.5462 41.9566C23.2166 41.7391 22.9265 41.4952 22.6628 41.2315C22.3925 40.9612 22.1486 40.6711 21.9376 40.3481L21.9245 40.3283C21.7201 40.0185 21.5421 39.6889 21.3971 39.3329C21.252 38.9835 21.14 38.6143 21.0609 38.2451C20.9883 37.876 20.9554 37.4936 20.9554 37.1113C20.9554 36.7289 20.9949 36.34 21.0609 35.9774C21.14 35.6082 21.2454 35.239 21.3971 34.8896C21.5421 34.5337 21.7267 34.1909 21.9376 33.881C22.1552 33.5514 22.3991 33.2613 22.6628 32.9976C22.9331 32.7274 23.2231 32.4834 23.5462 32.2725L23.5659 32.2593C23.8758 32.0549 24.2054 31.8769 24.5614 31.7319C24.9108 31.5869 25.28 31.4748 25.6491 31.4023C26.0249 31.3298 26.4072 31.2902 26.7962 31.2902ZM53.4226 31.2902C53.805 31.2902 54.1939 31.3298 54.5565 31.4023C54.9257 31.4814 55.2948 31.5869 55.6442 31.7319C56.0002 31.8769 56.343 32.0615 56.6529 32.2725C56.9561 32.4768 57.233 32.701 57.4901 32.9581C57.5033 32.9713 57.5231 32.9845 57.5362 32.9976C57.8065 33.2679 58.0504 33.558 58.2614 33.881L58.2746 33.9008C58.4789 34.2106 58.6569 34.5402 58.802 34.8962C58.947 35.2456 59.0591 35.6148 59.1382 35.984C59.2107 36.3531 59.2437 36.7355 59.2437 37.1178C59.2437 37.5002 59.2041 37.8892 59.1382 38.2517C59.0591 38.6209 58.9536 38.9901 58.802 39.3461C58.6569 39.702 58.4723 40.0448 58.2614 40.3547C58.0438 40.6843 57.7999 40.9744 57.5362 41.2381C57.266 41.5083 56.9759 41.7523 56.6529 41.9632L56.6331 41.9764C56.3167 42.1808 55.9936 42.3588 55.6376 42.5038C55.2883 42.6488 54.9191 42.7609 54.5433 42.84C54.1741 42.9125 53.7918 42.9455 53.4094 42.9455C53.0271 42.9455 52.6381 42.9059 52.2756 42.84C51.9064 42.7609 51.5372 42.6554 51.1812 42.5038C50.8186 42.3522 50.4758 42.1676 50.1726 41.9632L50.1396 41.9368C49.8298 41.7259 49.5463 41.4952 49.2892 41.2381C49.0189 40.9678 48.775 40.6777 48.5641 40.3547L48.5509 40.3349C48.3465 40.0251 48.1685 39.6955 48.0235 39.3395C47.8785 38.9901 47.7664 38.6209 47.6873 38.2517C47.6148 37.8826 47.5752 37.5002 47.5752 37.1178C47.5752 36.7355 47.6148 36.3465 47.6873 35.984C47.7664 35.6148 47.8719 35.2456 48.0235 34.8962C48.1685 34.5402 48.3531 34.1974 48.5641 33.8876C48.7816 33.558 49.0255 33.2679 49.2892 33.0042C49.5529 32.7405 49.8496 32.4966 50.1726 32.2791C50.489 32.0681 50.8252 31.8901 51.1812 31.7319C51.5306 31.5869 51.8998 31.4748 52.269 31.4023C52.6579 31.3298 53.0403 31.2902 53.4226 31.2902ZM12.3326 32.668V52.4384C12.3326 53.4998 12.5436 54.515 12.9259 55.4445C13.3281 56.407 13.9148 57.2772 14.6399 58.009C15.3717 58.7407 16.2419 59.3274 17.2043 59.723C18.1273 60.1053 19.1425 60.3163 20.2105 60.3163H60.0018C61.0631 60.3163 62.0784 60.1053 63.0079 59.723C63.9704 59.3208 64.8405 58.7341 65.5723 58.009C66.304 57.2772 66.8908 56.407 67.2863 55.4445C67.6687 54.5216 67.8796 53.5064 67.8796 52.4384V30.3277C67.8796 29.2664 67.6687 28.2446 67.2863 27.3216C66.8842 26.3592 66.2974 25.489 65.5723 24.7572C64.8405 24.0255 63.9704 23.4388 63.0079 23.0432C62.0849 22.6609 61.0697 22.4499 60.0018 22.4499H20.217C19.1557 22.4499 18.1405 22.6609 17.2109 23.0432C16.2485 23.4453 15.3783 24.0321 14.6465 24.7572C13.9148 25.489 13.3281 26.3592 12.9325 27.3216C12.5502 28.2446 12.3392 29.2598 12.3392 30.3277L12.3326 32.668ZM9.77479 33.9403H5.22608C4.95579 33.9403 4.69869 33.9931 4.46796 34.0854C4.22404 34.1909 4.0065 34.3359 3.82191 34.5205L3.79554 34.5402C3.62414 34.7182 3.47911 34.9292 3.38682 35.1599C3.28793 35.3907 3.24179 35.6478 3.24179 35.918V48.0348C3.24179 48.305 3.29452 48.5621 3.38682 48.7929C3.49229 49.0368 3.63733 49.2543 3.82191 49.4389C4.1779 49.7949 4.67232 50.019 5.21948 50.019H9.77479V33.9403ZM74.8345 33.9403H70.444V50.019H74.8345C75.1048 50.019 75.3619 49.9663 75.5926 49.874C75.8366 49.7685 76.0541 49.6235 76.2387 49.4389C76.4233 49.2543 76.5749 49.0368 76.6738 48.7929C76.7727 48.5621 76.8188 48.305 76.8188 48.0348V35.9246C76.8188 35.6543 76.7661 35.3972 76.6738 35.1665C76.5683 34.9226 76.4233 34.7051 76.2387 34.5205C76.0541 34.3359 75.8366 34.1843 75.5926 34.0854C75.3619 33.9997 75.1048 33.9403 74.8345 33.9403Z" fill="#1E26E9"/>
<path d="M121.64 71.864C117.224 71.864 113.696 70.232 111.056 66.968C108.416 63.704 107.096 59.168 107.096 53.36C107.096 49.52 107.792 46.208 109.184 43.424C110.624 40.64 112.496 38.504 114.8 37.016C117.104 35.528 119.528 34.784 122.072 34.784C124.088 34.784 125.792 35.144 127.184 35.864C128.624 36.536 130.016 37.472 131.36 38.672L131.072 32.984V20.168H139.352V71H132.512L131.936 67.184H131.648C130.352 68.48 128.84 69.584 127.112 70.496C125.384 71.408 123.56 71.864 121.64 71.864ZM123.656 65.024C126.296 65.024 128.768 63.704 131.072 61.064V44.576C129.872 43.472 128.672 42.704 127.472 42.272C126.272 41.84 125.072 41.624 123.872 41.624C121.616 41.624 119.672 42.656 118.04 44.72C116.456 46.736 115.664 49.592 115.664 53.288C115.664 57.08 116.36 59.984 117.752 62C119.144 64.016 121.112 65.024 123.656 65.024ZM149.537 71V35.648H157.817V71H149.537ZM153.713 29.456C152.225 29.456 151.025 29.024 150.113 28.16C149.201 27.296 148.745 26.144 148.745 24.704C148.745 23.312 149.201 22.184 150.113 21.32C151.025 20.456 152.225 20.024 153.713 20.024C155.201 20.024 156.401 20.456 157.313 21.32C158.225 22.184 158.681 23.312 158.681 24.704C158.681 26.144 158.225 27.296 157.313 28.16C156.401 29.024 155.201 29.456 153.713 29.456ZM177.884 71.864C175.484 71.864 173.084 71.408 170.684 70.496C168.284 69.536 166.22 68.36 164.492 66.968L168.38 61.64C169.964 62.84 171.548 63.8 173.132 64.52C174.716 65.24 176.396 65.6 178.172 65.6C180.092 65.6 181.508 65.192 182.42 64.376C183.332 63.56 183.788 62.552 183.788 61.352C183.788 60.344 183.404 59.528 182.636 58.904C181.916 58.232 180.98 57.656 179.828 57.176C178.676 56.648 177.476 56.144 176.228 55.664C174.692 55.088 173.156 54.392 171.62 53.576C170.132 52.712 168.908 51.632 167.948 50.336C166.988 48.992 166.508 47.336 166.508 45.368C166.508 42.248 167.66 39.704 169.964 37.736C172.268 35.768 175.388 34.784 179.324 34.784C181.82 34.784 184.052 35.216 186.02 36.08C187.988 36.944 189.692 37.928 191.132 39.032L187.316 44.072C186.068 43.16 184.796 42.44 183.5 41.912C182.252 41.336 180.932 41.048 179.54 41.048C177.764 41.048 176.444 41.432 175.58 42.2C174.716 42.92 174.284 43.832 174.284 44.936C174.284 46.328 175.004 47.384 176.444 48.104C177.884 48.824 179.564 49.52 181.484 50.192C183.116 50.768 184.7 51.488 186.236 52.352C187.772 53.168 189.044 54.248 190.052 55.592C191.108 56.936 191.636 58.712 191.636 60.92C191.636 63.944 190.46 66.536 188.108 68.696C185.756 70.808 182.348 71.864 177.884 71.864ZM198.668 71V20.168H206.948V33.272L206.66 40.112C208.148 38.72 209.804 37.496 211.628 36.44C213.452 35.336 215.564 34.784 217.964 34.784C221.756 34.784 224.516 36.008 226.244 38.456C227.972 40.904 228.836 44.36 228.836 48.824V71H220.556V49.904C220.556 46.976 220.124 44.912 219.26 43.712C218.396 42.512 216.98 41.912 215.012 41.912C213.476 41.912 212.108 42.296 210.908 43.064C209.756 43.784 208.436 44.864 206.948 46.304V71H198.668ZM255.593 71.864C252.233 71.864 249.017 70.328 245.945 67.256H245.729L245.009 71H238.457V20.168H246.737V33.272L246.521 39.176C248.009 37.88 249.641 36.824 251.417 36.008C253.193 35.192 254.969 34.784 256.745 34.784C261.161 34.784 264.593 36.416 267.041 39.68C269.489 42.944 270.713 47.288 270.713 52.712C270.713 56.744 269.993 60.2 268.553 63.08C267.113 65.912 265.241 68.096 262.937 69.632C260.681 71.12 258.233 71.864 255.593 71.864ZM253.865 65.024C256.217 65.024 258.185 63.992 259.769 61.928C261.353 59.864 262.145 56.84 262.145 52.856C262.145 49.304 261.545 46.544 260.345 44.576C259.145 42.608 257.201 41.624 254.513 41.624C252.017 41.624 249.425 42.944 246.737 45.584V62.072C247.985 63.128 249.209 63.896 250.409 64.376C251.657 64.808 252.809 65.024 253.865 65.024ZM293.139 71.864C290.211 71.864 287.475 71.144 284.931 69.704C282.387 68.216 280.323 66.104 278.739 63.368C277.155 60.584 276.363 57.248 276.363 53.36C276.363 49.424 277.155 46.088 278.739 43.352C280.323 40.568 282.387 38.456 284.931 37.016C287.475 35.528 290.211 34.784 293.139 34.784C296.115 34.784 298.875 35.528 301.419 37.016C303.963 38.456 306.027 40.568 307.611 43.352C309.195 46.088 309.987 49.424 309.987 53.36C309.987 57.248 309.195 60.584 307.611 63.368C306.027 66.104 303.963 68.216 301.419 69.704C298.875 71.144 296.115 71.864 293.139 71.864ZM293.139 65.096C295.731 65.096 297.771 64.016 299.259 61.856C300.747 59.696 301.491 56.864 301.491 53.36C301.491 49.808 300.747 46.952 299.259 44.792C297.771 42.632 295.731 41.552 293.139 41.552C290.547 41.552 288.507 42.632 287.019 44.792C285.579 46.952 284.859 49.808 284.859 53.36C284.859 56.864 285.579 59.696 287.019 61.856C288.507 64.016 290.547 65.096 293.139 65.096ZM328.661 71.864C324.581 71.864 321.677 70.688 319.949 68.336C318.269 65.936 317.429 62.84 317.429 59.048V42.2H312.389V36.008L317.861 35.648L318.869 26H325.781V35.648H334.781V42.2H325.781V59.048C325.781 63.176 327.437 65.24 330.749 65.24C331.373 65.24 332.021 65.168 332.693 65.024C333.365 64.832 333.941 64.64 334.421 64.448L335.861 70.568C334.901 70.904 333.797 71.192 332.549 71.432C331.349 71.72 330.053 71.864 328.661 71.864Z" fill="black"/>
</svg>
