<svg width="608" height="76" viewBox="0 0 608 76" fill="none" xmlns="http://www.w3.org/2000/svg">
<path fill-rule="evenodd" clip-rule="evenodd" d="M200.622 57L200.747 57.0522L194.219 72.9999H183.179L214.091 0.231934H214.763L219.519 11.4286L213.906 24.9204L213.899 24.9039L213.16 26.7112L209.434 35.6672L209.49 35.6908L206.552 42.8799L206.505 42.8603L200.622 57ZM219.046 37.9128L222.635 46.9839H215.336L211.341 56.5839H226.379L232.811 72.9999H245.675L224.847 23.9706L219.046 37.9128ZM147.203 3.11193V75.4959H146.915L96.515 26.6319L96.5151 26.6489L85.475 15.6088V0.711933H86.051L136.259 50.1519L136.067 3.11193H147.203ZM85.475 30.9357L96.6109 42.0716L96.803 72.9999H85.475V30.9357ZM42.272 17.3199C36.256 14.1839 30.912 12.6159 26.24 12.6159C22.784 12.6159 20.032 13.3839 17.984 14.9199C16 16.4559 15.008 18.5679 15.008 21.2559C15.008 23.8799 16.256 26.0879 18.752 27.8799C21.312 29.6079 24.864 31.3359 29.408 33.0639C32.864 34.2799 35.808 35.6879 38.24 37.2879C40.736 38.8239 42.784 40.9359 44.384 43.6239C45.984 46.3119 46.784 49.7039 46.784 53.7999C46.784 57.5119 45.856 60.8719 44 63.8799C42.144 66.8879 39.456 69.2879 35.936 71.0799C32.416 72.8719 28.256 73.7679 23.456 73.7679C19.232 73.7679 15.072 73.1279 10.976 71.8479C6.87998 70.5039 3.23198 68.6799 0.0319824 66.3759L5.02398 57.6399C7.39198 59.4319 10.176 60.9359 13.376 62.1519C16.64 63.3039 19.648 63.8799 22.4 63.8799C25.792 63.8799 28.768 63.0799 31.328 61.4799C33.888 59.8159 35.168 57.2879 35.168 53.8959C35.168 51.2079 34.08 48.9679 31.904 47.1759C29.792 45.3839 26.816 43.7519 22.976 42.2799C19.008 40.8079 15.712 39.3679 13.088 37.9599C10.464 36.4879 8.19198 34.4719 6.27198 31.9119C4.41598 29.2879 3.48798 26.0239 3.48798 22.1199C3.48798 16.4239 5.40798 11.8479 9.24798 8.39193C13.152 4.87193 18.272 2.98393 24.608 2.72793C29.216 2.72793 33.248 3.27193 36.704 4.35993C40.224 5.38393 43.488 6.85593 46.496 8.77593L42.272 17.3199ZM329.315 67.5279C327.267 68.9999 324.419 70.4079 320.771 71.7519C317.187 73.0959 313.251 73.7679 308.963 73.7679C301.731 73.7679 295.395 72.1999 289.955 69.0639C284.579 65.8639 280.419 61.6079 277.475 56.2959C274.595 50.9199 273.155 45.0319 273.155 38.6319C273.155 31.6559 274.595 25.4159 277.475 19.9119C280.419 14.4079 284.483 10.1199 289.667 7.04793C294.915 3.91193 300.867 2.34393 307.523 2.34393C311.619 2.34393 315.395 2.88793 318.851 3.97593C322.371 5.06393 325.475 6.43993 328.163 8.10393L323.747 18.5679C318.563 14.9199 313.283 13.0959 307.907 13.0959C303.811 13.0959 299.971 14.2159 296.387 16.4559C292.867 18.6319 290.051 21.6399 287.939 25.4799C285.827 29.2559 284.771 33.4159 284.771 37.9599C284.771 42.7599 285.731 47.0799 287.651 50.9199C289.635 54.6959 292.419 57.6719 296.003 59.8479C299.651 61.9599 303.843 63.0159 308.579 63.0159C311.971 63.0159 315.011 62.5039 317.699 61.4799C320.451 60.4559 322.755 59.1439 324.611 57.5439L329.315 67.5279ZM380.801 31.2399L379.553 32.5V32.4883L368.225 44.5425V72.9999H379.553V45.5439L384.449 40.7439L408.353 72.9999H422.561L392.609 33.6399L421.505 3.11193H407.105L380.801 31.2399ZM379.553 17.6935V3.11193H368.225V29.7477L379.553 17.6935ZM504.78 3.11193V13.8639H469.644V21.7H458.412V3.11193H504.78ZM458.412 32.5V51.45H469.644V43.2399H500.94V32.4879H470V32.5H458.412ZM458.412 72.9999V62.25H470V62.2479H506.124V72.9999H458.412ZM607.328 75.4959V3.11193H596.192L596.384 50.1519L546.176 0.711933H545.6V15.3363L565.027 34.7635L607.04 75.4959H607.328ZM545.6 30.6632L556.734 41.7974L556.928 72.9999H545.6V30.6632Z" fill="url(#paint0_linear_3_100)"/>
<defs>
<linearGradient id="paint0_linear_3_100" x1="617" y1="37.0002" x2="-3.99997" y2="41.5002" gradientUnits="userSpaceOnUse">
<stop stop-color="#EF68C9"/>
<stop offset="1" stop-color="#610EEA"/>
</linearGradient>
</defs>
</svg>
